<svg width="163" height="164" viewBox="0 0 163 164" fill="none" xmlns="http://www.w3.org/2000/svg">
<g clip-path="url(#clip0_4122_13806)">
<path d="M89.9783 81.512L102.554 95.8863L119.464 106.693L122.413 81.6005L119.464 57.0684L102.23 66.5628L89.9783 81.512Z" fill="#00832D"/>
<path d="M17.0017 104.363V125.74C17.0017 130.628 20.9602 134.586 25.8474 134.586H47.2246L51.6474 118.428L47.2246 104.363L32.5554 99.9404L17.0017 104.363Z" fill="#0066DA"/>
<path d="M47.2246 28.4375L17.0017 58.6604L32.5554 63.0832L47.2246 58.6604L51.5737 44.7873L47.2246 28.4375Z" fill="#E94235"/>
<path d="M47.2246 58.6602H17.0017V104.363H47.2246V58.6602Z" fill="#2684FC"/>
<path d="M138.778 41.234L119.464 57.0678V106.692L138.866 122.6C141.77 124.87 146.016 122.799 146.016 119.106V44.6544C146.016 40.917 141.674 38.8678 138.778 41.234ZM89.9787 81.5115V104.363H47.2244V134.586H110.619C115.506 134.586 119.464 130.627 119.464 125.74V106.692L89.9787 81.5115Z" fill="#00AC47"/>
<path d="M110.619 28.4375H47.2244V58.6604H89.9787V81.5118L119.464 57.0829V37.2832C119.464 32.396 115.506 28.4375 110.619 28.4375Z" fill="#FFBA00"/>
</g>
<defs>
<clipPath id="clip0_4122_13806">
<rect width="129" height="106.149" fill="white" transform="translate(17.0017 28.4375)"/>
</clipPath>
</defs>
</svg>
